<svg xmlns="http://www.w3.org/2000/svg" viewBox="0 0 739.01 707.15"><defs><style>.cls-1{fill:blue;}</style></defs><title>logo_1setsil</title><g id="Layer_2" data-name="Layer 2"><g id="Layer_1-2" data-name="Layer 1"><rect class="cls-1" x="484.47" y="105.99" width="144.99" height="52.83"/><rect class="cls-1" x="379.06" y="224.63" width="52.83" height="282.23"/><path class="cls-1" d="M72.57,145a73.41,73.41,0,0,1-11.66-.94A72.51,72.51,0,0,1,30.13,13.7,72.07,72.07,0,0,1,84.14,1h0A72.51,72.51,0,0,1,72.57,145Zm-.09-92.2A19.68,19.68,0,0,0,69.37,92,19.68,19.68,0,0,0,75.68,53.1,20.41,20.41,0,0,0,72.48,52.84Z"/><path class="cls-1" d="M151.19,337a87.25,87.25,0,0,1-14-1.13,86.32,86.32,0,1,1,27.65-170.41h0A86.33,86.33,0,0,1,151.19,337Zm-.26-119.83a33.53,33.53,0,1,0,5.44.44A34.6,34.6,0,0,0,150.93,217.16Z"/><path class="cls-1" d="M405.54,245.77a113.36,113.36,0,1,1,111.82-95.21A112.94,112.94,0,0,1,405.54,245.77Zm-.19-173.89a60.57,60.57,0,1,0,9.82.79A61.52,61.52,0,0,0,405.35,71.88Z"/><path class="cls-1" d="M405.54,707.15A113.36,113.36,0,1,1,423.63,481.9h0a113.36,113.36,0,0,1-18.09,225.25Zm-.09-173.89a60.56,60.56,0,1,0,9.72.79A60.63,60.63,0,0,0,405.45,533.26Z"/><path class="cls-1" d="M666.54,204.92A72.51,72.51,0,1,1,678.11,60.84h0a72.51,72.51,0,0,1-11.57,144.08Zm-.09-92.19a19.68,19.68,0,0,0-3.11,39.1A19.67,19.67,0,1,0,669.65,113,19.27,19.27,0,0,0,666.45,112.73Z"/><path class="cls-1" d="M222.5,151a356.66,356.66,0,0,0-54.79,42.38,55.07,55.07,0,0,1,36.42,38.26,303.28,303.28,0,0,1,46.43-35.87,227.93,227.93,0,0,1,68-28.43V113.27A283.43,283.43,0,0,0,222.5,151Z"/><path class="cls-1" d="M215.11,92.54C175.84,86.22,147,78.45,123.86,70.18c0,.84.13,1.66.13,2.5a51.4,51.4,0,0,1-25.54,44.41c26.9,10.17,61.17,20,108.26,27.61,51.11,8.24,82.71,11.75,123.89,13.19V105.05C293,103.66,263.43,100.33,215.11,92.54Z"/></g></g></svg>